<svg id="visual" viewBox="0 0 550 675" width="550" height="675" xmlns="http://www.w3.org/2000/svg" xmlns:xlink="http://www.w3.org/1999/xlink" version="1.1"><path d="M0 135L11.5 135.7C23 136.3 46 137.7 69 133.8C92 130 115 121 137.8 120C160.7 119 183.3 126 206.2 126.3C229 126.7 252 120.3 275 117C298 113.7 321 113.3 344 113.3C367 113.3 390 113.7 412.8 114.2C435.7 114.7 458.3 115.3 481.2 118C504 120.7 527 125.3 538.5 127.7L550 130L550 0L538.5 0C527 0 504 0 481.2 0C458.3 0 435.7 0 412.8 0C390 0 367 0 344 0C321 0 298 0 275 0C252 0 229 0 206.2 0C183.3 0 160.7 0 137.8 0C115 0 92 0 69 0C46 0 23 0 11.5 0L0 0Z" fill="#b7e9ff"></path><path d="M0 88L11.5 89.5C23 91 46 94 69 95.3C92 96.7 115 96.3 137.8 98.3C160.7 100.3 183.3 104.7 206.2 104.8C229 105 252 101 275 96.8C298 92.7 321 88.3 344 88.3C367 88.3 390 92.7 412.8 92.8C435.7 93 458.3 89 481.2 88.7C504 88.3 527 91.7 538.5 93.3L550 95L550 0L538.5 0C527 0 504 0 481.2 0C458.3 0 435.7 0 412.8 0C390 0 367 0 344 0C321 0 298 0 275 0C252 0 229 0 206.2 0C183.3 0 160.7 0 137.8 0C115 0 92 0 69 0C46 0 23 0 11.5 0L0 0Z" fill="#d0f0ff"></path><path d="M0 65L11.5 66.2C23 67.3 46 69.7 69 70.8C92 72 115 72 137.8 70C160.7 68 183.3 64 206.2 64C229 64 252 68 275 68.2C298 68.3 321 64.7 344 62.8C367 61 390 61 412.8 63.5C435.7 66 458.3 71 481.2 71.3C504 71.7 527 67.3 538.5 65.2L550 63L550 0L538.5 0C527 0 504 0 481.2 0C458.3 0 435.7 0 412.8 0C390 0 367 0 344 0C321 0 298 0 275 0C252 0 229 0 206.2 0C183.3 0 160.7 0 137.8 0C115 0 92 0 69 0C46 0 23 0 11.5 0L0 0Z" fill="#e8f8ff"></path><path d="M0 45L11.5 45.2C23 45.3 46 45.7 69 45.8C92 46 115 46 137.8 43.7C160.7 41.3 183.3 36.7 206.2 35.8C229 35 252 38 275 38C298 38 321 35 344 34.2C367 33.3 390 34.7 412.8 36C435.7 37.3 458.3 38.7 481.2 38.3C504 38 527 36 538.5 35L550 34L550 0L538.5 0C527 0 504 0 481.2 0C458.3 0 435.7 0 412.8 0C390 0 367 0 344 0C321 0 298 0 275 0C252 0 229 0 206.2 0C183.3 0 160.7 0 137.8 0C115 0 92 0 69 0C46 0 23 0 11.5 0L0 0Z" fill="#ffffff"></path></svg>